G04 #@! TF.GenerationSoftware,KiCad,Pcbnew,(5.1.4)-1*
G04 #@! TF.CreationDate,2021-09-02T19:08:13+02:00*
G04 #@! TF.ProjectId,mini-type-c-breakout,6d696e69-2d74-4797-9065-2d632d627265,rev?*
G04 #@! TF.SameCoordinates,Original*
G04 #@! TF.FileFunction,Copper,L1,Top*
G04 #@! TF.FilePolarity,Positive*
%FSLAX46Y46*%
G04 Gerber Fmt 4.6, Leading zero omitted, Abs format (unit mm)*
G04 Created by KiCad (PCBNEW (5.1.4)-1) date 2021-09-02 19:08:13*
%MOMM*%
%LPD*%
G04 APERTURE LIST*
%ADD10R,1.000000X1.000000*%
%ADD11R,0.600000X1.450000*%
%ADD12R,0.300000X1.450000*%
%ADD13C,0.800000*%
%ADD14C,0.381000*%
%ADD15C,0.254000*%
%ADD16C,0.127000*%
G04 APERTURE END LIST*
D10*
X277251160Y-163614100D03*
X281002740Y-163614100D03*
X279593040Y-163614100D03*
X283347160Y-163614100D03*
D11*
X283524320Y-160329800D03*
X277074320Y-160329800D03*
X282749320Y-160329800D03*
X277849320Y-160329800D03*
D12*
X278549320Y-160329800D03*
X282049320Y-160329800D03*
X279049320Y-160329800D03*
X281549320Y-160329800D03*
X279549320Y-160329800D03*
X281049320Y-160329800D03*
X280549320Y-160329800D03*
X280049320Y-160329800D03*
D13*
X283494319Y-162229800D03*
X277251160Y-163614100D03*
X277886821Y-161366802D03*
X282776320Y-161487885D03*
X281276320Y-161721800D03*
X279743887Y-162299367D03*
X282102742Y-163525199D03*
X278364236Y-163529689D03*
D14*
X283494319Y-162229800D02*
X283566821Y-162157298D01*
X283566821Y-162157298D02*
X283566821Y-160372301D01*
X283566821Y-160372301D02*
X283524320Y-160329800D01*
X277074320Y-160329800D02*
X277074320Y-163437260D01*
X277074320Y-163437260D02*
X277251160Y-163614100D01*
X282749320Y-161460885D02*
X282776320Y-161487885D01*
X277849320Y-160329800D02*
X277849320Y-161329301D01*
X282749320Y-160329800D02*
X282749320Y-161460885D01*
X277849320Y-161329301D02*
X277886821Y-161366802D01*
X282703818Y-161560387D02*
X282776320Y-161487885D01*
X282703818Y-162970758D02*
X282703818Y-161560387D01*
X283347160Y-163614100D02*
X282703818Y-162970758D01*
D15*
X280549320Y-161308800D02*
X280549320Y-160329800D01*
X280549320Y-162569896D02*
X280549320Y-161308800D01*
X279593040Y-163526176D02*
X280549320Y-162569896D01*
X279593040Y-163614100D02*
X279593040Y-163526176D01*
X279534620Y-163614100D02*
X278912320Y-162991800D01*
X279593040Y-163614100D02*
X279534620Y-163614100D01*
X279549320Y-161308800D02*
X279549320Y-160329800D01*
X279549320Y-161435469D02*
X279549320Y-161308800D01*
X278912320Y-162072469D02*
X279549320Y-161435469D01*
X278912320Y-162991800D02*
X278912320Y-162072469D01*
X281049320Y-160329800D02*
X281049320Y-161494800D01*
X281049320Y-161494800D02*
X281276320Y-161721800D01*
X280049320Y-161993934D02*
X279743887Y-162299367D01*
X280049320Y-160329800D02*
X280049320Y-161993934D01*
X281276320Y-163340520D02*
X281276320Y-161721800D01*
X281002740Y-163614100D02*
X281276320Y-163340520D01*
X282049320Y-160329800D02*
X282049320Y-163471777D01*
X282049320Y-163471777D02*
X282102742Y-163525199D01*
X279026321Y-160352799D02*
X279049320Y-160329800D01*
X279026321Y-161316401D02*
X279026321Y-160352799D01*
X278364236Y-163529689D02*
X278364236Y-161978486D01*
X278364236Y-161978486D02*
X279026321Y-161316401D01*
D16*
G36*
X277137820Y-160266300D02*
G01*
X277157820Y-160266300D01*
X277157820Y-160393300D01*
X277137820Y-160393300D01*
X277137820Y-161292925D01*
X277169321Y-161324426D01*
X277169321Y-161437470D01*
X277196894Y-161576089D01*
X277250980Y-161706666D01*
X277329502Y-161824182D01*
X277429441Y-161924121D01*
X277546957Y-162002643D01*
X277677534Y-162056729D01*
X277816153Y-162084302D01*
X277919737Y-162084302D01*
X277919736Y-162844196D01*
X277873250Y-162819349D01*
X277813401Y-162801194D01*
X277751160Y-162795064D01*
X277394035Y-162796600D01*
X277314660Y-162875975D01*
X277314660Y-163550600D01*
X277334660Y-163550600D01*
X277334660Y-163677600D01*
X277314660Y-163677600D01*
X277314660Y-163697600D01*
X277187660Y-163697600D01*
X277187660Y-163677600D01*
X277167660Y-163677600D01*
X277167660Y-163550600D01*
X277187660Y-163550600D01*
X277187660Y-162875975D01*
X277108285Y-162796600D01*
X276841819Y-162795454D01*
X276841820Y-161373176D01*
X276931445Y-161372300D01*
X277010820Y-161292925D01*
X277010820Y-160393300D01*
X276990820Y-160393300D01*
X276990820Y-160266300D01*
X277010820Y-160266300D01*
X277010820Y-160246300D01*
X277137820Y-160246300D01*
X277137820Y-160266300D01*
X277137820Y-160266300D01*
G37*
X277137820Y-160266300D02*
X277157820Y-160266300D01*
X277157820Y-160393300D01*
X277137820Y-160393300D01*
X277137820Y-161292925D01*
X277169321Y-161324426D01*
X277169321Y-161437470D01*
X277196894Y-161576089D01*
X277250980Y-161706666D01*
X277329502Y-161824182D01*
X277429441Y-161924121D01*
X277546957Y-162002643D01*
X277677534Y-162056729D01*
X277816153Y-162084302D01*
X277919737Y-162084302D01*
X277919736Y-162844196D01*
X277873250Y-162819349D01*
X277813401Y-162801194D01*
X277751160Y-162795064D01*
X277394035Y-162796600D01*
X277314660Y-162875975D01*
X277314660Y-163550600D01*
X277334660Y-163550600D01*
X277334660Y-163677600D01*
X277314660Y-163677600D01*
X277314660Y-163697600D01*
X277187660Y-163697600D01*
X277187660Y-163677600D01*
X277167660Y-163677600D01*
X277167660Y-163550600D01*
X277187660Y-163550600D01*
X277187660Y-162875975D01*
X277108285Y-162796600D01*
X276841819Y-162795454D01*
X276841820Y-161373176D01*
X276931445Y-161372300D01*
X277010820Y-161292925D01*
X277010820Y-160393300D01*
X276990820Y-160393300D01*
X276990820Y-160266300D01*
X277010820Y-160266300D01*
X277010820Y-160246300D01*
X277137820Y-160246300D01*
X277137820Y-160266300D01*
G36*
X283587820Y-160266300D02*
G01*
X283607820Y-160266300D01*
X283607820Y-160393300D01*
X283587820Y-160393300D01*
X283587820Y-161292925D01*
X283667195Y-161372300D01*
X283776821Y-161373372D01*
X283776820Y-162795064D01*
X283246544Y-162795064D01*
X283211818Y-162760338D01*
X283211818Y-162059825D01*
X283233700Y-162045204D01*
X283333639Y-161945265D01*
X283412161Y-161827749D01*
X283466247Y-161697172D01*
X283493820Y-161558553D01*
X283493820Y-161417217D01*
X283466247Y-161278598D01*
X283460820Y-161265496D01*
X283460820Y-160393300D01*
X283440820Y-160393300D01*
X283440820Y-160266300D01*
X283460820Y-160266300D01*
X283460820Y-160246300D01*
X283587820Y-160246300D01*
X283587820Y-160266300D01*
X283587820Y-160266300D01*
G37*
X283587820Y-160266300D02*
X283607820Y-160266300D01*
X283607820Y-160393300D01*
X283587820Y-160393300D01*
X283587820Y-161292925D01*
X283667195Y-161372300D01*
X283776821Y-161373372D01*
X283776820Y-162795064D01*
X283246544Y-162795064D01*
X283211818Y-162760338D01*
X283211818Y-162059825D01*
X283233700Y-162045204D01*
X283333639Y-161945265D01*
X283412161Y-161827749D01*
X283466247Y-161697172D01*
X283493820Y-161558553D01*
X283493820Y-161417217D01*
X283466247Y-161278598D01*
X283460820Y-161265496D01*
X283460820Y-160393300D01*
X283440820Y-160393300D01*
X283440820Y-160266300D01*
X283460820Y-160266300D01*
X283460820Y-160246300D01*
X283587820Y-160246300D01*
X283587820Y-160266300D01*
M02*
