G04 #@! TF.GenerationSoftware,KiCad,Pcbnew,(5.1.4)-1*
G04 #@! TF.CreationDate,2021-09-02T19:08:13+02:00*
G04 #@! TF.ProjectId,mini-type-c-breakout,6d696e69-2d74-4797-9065-2d632d627265,rev?*
G04 #@! TF.SameCoordinates,Original*
G04 #@! TF.FileFunction,Legend,Bot*
G04 #@! TF.FilePolarity,Positive*
%FSLAX46Y46*%
G04 Gerber Fmt 4.6, Leading zero omitted, Abs format (unit mm)*
G04 Created by KiCad (PCBNEW (5.1.4)-1) date 2021-09-02 19:08:13*
%MOMM*%
%LPD*%
G04 APERTURE LIST*
%ADD10C,0.040000*%
%ADD11C,0.120000*%
%ADD12C,0.100000*%
G04 APERTURE END LIST*
D10*
X283715034Y-160560371D02*
X283715034Y-160320371D01*
X283577891Y-160560371D01*
X283577891Y-160320371D01*
X283429320Y-160560371D02*
X283452177Y-160548942D01*
X283463605Y-160537514D01*
X283475034Y-160514657D01*
X283475034Y-160446085D01*
X283463605Y-160423228D01*
X283452177Y-160411800D01*
X283429320Y-160400371D01*
X283395034Y-160400371D01*
X283372177Y-160411800D01*
X283360748Y-160423228D01*
X283349320Y-160446085D01*
X283349320Y-160514657D01*
X283360748Y-160537514D01*
X283372177Y-160548942D01*
X283395034Y-160560371D01*
X283429320Y-160560371D01*
X283246462Y-160400371D02*
X283246462Y-160560371D01*
X283246462Y-160423228D02*
X283235034Y-160411800D01*
X283212177Y-160400371D01*
X283177891Y-160400371D01*
X283155034Y-160411800D01*
X283143605Y-160434657D01*
X283143605Y-160560371D01*
X283029320Y-160468942D02*
X282846462Y-160468942D01*
X282743605Y-160548942D02*
X282720748Y-160560371D01*
X282675034Y-160560371D01*
X282652177Y-160548942D01*
X282640748Y-160526085D01*
X282640748Y-160514657D01*
X282652177Y-160491800D01*
X282675034Y-160480371D01*
X282709320Y-160480371D01*
X282732177Y-160468942D01*
X282743605Y-160446085D01*
X282743605Y-160434657D01*
X282732177Y-160411800D01*
X282709320Y-160400371D01*
X282675034Y-160400371D01*
X282652177Y-160411800D01*
X282572177Y-160400371D02*
X282480748Y-160400371D01*
X282537891Y-160320371D02*
X282537891Y-160526085D01*
X282526462Y-160548942D01*
X282503605Y-160560371D01*
X282480748Y-160560371D01*
X282297891Y-160560371D02*
X282297891Y-160434657D01*
X282309320Y-160411800D01*
X282332177Y-160400371D01*
X282377891Y-160400371D01*
X282400748Y-160411800D01*
X282297891Y-160548942D02*
X282320748Y-160560371D01*
X282377891Y-160560371D01*
X282400748Y-160548942D01*
X282412177Y-160526085D01*
X282412177Y-160503228D01*
X282400748Y-160480371D01*
X282377891Y-160468942D01*
X282320748Y-160468942D01*
X282297891Y-160457514D01*
X282183605Y-160400371D02*
X282183605Y-160560371D01*
X282183605Y-160423228D02*
X282172177Y-160411800D01*
X282149320Y-160400371D01*
X282115034Y-160400371D01*
X282092177Y-160411800D01*
X282080748Y-160434657D01*
X282080748Y-160560371D01*
X281863605Y-160560371D02*
X281863605Y-160320371D01*
X281863605Y-160548942D02*
X281886462Y-160560371D01*
X281932177Y-160560371D01*
X281955034Y-160548942D01*
X281966462Y-160537514D01*
X281977891Y-160514657D01*
X281977891Y-160446085D01*
X281966462Y-160423228D01*
X281955034Y-160411800D01*
X281932177Y-160400371D01*
X281886462Y-160400371D01*
X281863605Y-160411800D01*
X281646462Y-160560371D02*
X281646462Y-160434657D01*
X281657891Y-160411800D01*
X281680748Y-160400371D01*
X281726462Y-160400371D01*
X281749320Y-160411800D01*
X281646462Y-160548942D02*
X281669320Y-160560371D01*
X281726462Y-160560371D01*
X281749320Y-160548942D01*
X281760748Y-160526085D01*
X281760748Y-160503228D01*
X281749320Y-160480371D01*
X281726462Y-160468942D01*
X281669320Y-160468942D01*
X281646462Y-160457514D01*
X281532177Y-160560371D02*
X281532177Y-160400371D01*
X281532177Y-160446085D02*
X281520748Y-160423228D01*
X281509320Y-160411800D01*
X281486462Y-160400371D01*
X281463605Y-160400371D01*
X281280748Y-160560371D02*
X281280748Y-160320371D01*
X281280748Y-160548942D02*
X281303605Y-160560371D01*
X281349320Y-160560371D01*
X281372177Y-160548942D01*
X281383605Y-160537514D01*
X281395034Y-160514657D01*
X281395034Y-160446085D01*
X281383605Y-160423228D01*
X281372177Y-160411800D01*
X281349320Y-160400371D01*
X281303605Y-160400371D01*
X281280748Y-160411800D01*
X281017891Y-160320371D02*
X280880748Y-160320371D01*
X280949320Y-160560371D02*
X280949320Y-160320371D01*
X280823605Y-160400371D02*
X280766462Y-160560371D01*
X280709320Y-160400371D02*
X280766462Y-160560371D01*
X280789320Y-160617514D01*
X280800748Y-160628942D01*
X280823605Y-160640371D01*
X280617891Y-160400371D02*
X280617891Y-160640371D01*
X280617891Y-160411800D02*
X280595034Y-160400371D01*
X280549320Y-160400371D01*
X280526462Y-160411800D01*
X280515034Y-160423228D01*
X280503605Y-160446085D01*
X280503605Y-160514657D01*
X280515034Y-160537514D01*
X280526462Y-160548942D01*
X280549320Y-160560371D01*
X280595034Y-160560371D01*
X280617891Y-160548942D01*
X280309320Y-160548942D02*
X280332177Y-160560371D01*
X280377891Y-160560371D01*
X280400748Y-160548942D01*
X280412177Y-160526085D01*
X280412177Y-160434657D01*
X280400748Y-160411800D01*
X280377891Y-160400371D01*
X280332177Y-160400371D01*
X280309320Y-160411800D01*
X280297891Y-160434657D01*
X280297891Y-160457514D01*
X280412177Y-160480371D01*
X279875034Y-160537514D02*
X279886462Y-160548942D01*
X279920748Y-160560371D01*
X279943605Y-160560371D01*
X279977891Y-160548942D01*
X280000748Y-160526085D01*
X280012177Y-160503228D01*
X280023605Y-160457514D01*
X280023605Y-160423228D01*
X280012177Y-160377514D01*
X280000748Y-160354657D01*
X279977891Y-160331800D01*
X279943605Y-160320371D01*
X279920748Y-160320371D01*
X279886462Y-160331800D01*
X279875034Y-160343228D01*
X279509320Y-160434657D02*
X279475034Y-160446085D01*
X279463605Y-160457514D01*
X279452177Y-160480371D01*
X279452177Y-160514657D01*
X279463605Y-160537514D01*
X279475034Y-160548942D01*
X279497891Y-160560371D01*
X279589320Y-160560371D01*
X279589320Y-160320371D01*
X279509320Y-160320371D01*
X279486462Y-160331800D01*
X279475034Y-160343228D01*
X279463605Y-160366085D01*
X279463605Y-160388942D01*
X279475034Y-160411800D01*
X279486462Y-160423228D01*
X279509320Y-160434657D01*
X279589320Y-160434657D01*
X279349320Y-160560371D02*
X279349320Y-160400371D01*
X279349320Y-160446085D02*
X279337891Y-160423228D01*
X279326462Y-160411800D01*
X279303605Y-160400371D01*
X279280748Y-160400371D01*
X279109320Y-160548942D02*
X279132177Y-160560371D01*
X279177891Y-160560371D01*
X279200748Y-160548942D01*
X279212177Y-160526085D01*
X279212177Y-160434657D01*
X279200748Y-160411800D01*
X279177891Y-160400371D01*
X279132177Y-160400371D01*
X279109320Y-160411800D01*
X279097891Y-160434657D01*
X279097891Y-160457514D01*
X279212177Y-160480371D01*
X278892177Y-160560371D02*
X278892177Y-160434657D01*
X278903605Y-160411800D01*
X278926462Y-160400371D01*
X278972177Y-160400371D01*
X278995034Y-160411800D01*
X278892177Y-160548942D02*
X278915034Y-160560371D01*
X278972177Y-160560371D01*
X278995034Y-160548942D01*
X279006462Y-160526085D01*
X279006462Y-160503228D01*
X278995034Y-160480371D01*
X278972177Y-160468942D01*
X278915034Y-160468942D01*
X278892177Y-160457514D01*
X278777891Y-160560371D02*
X278777891Y-160320371D01*
X278755034Y-160468942D02*
X278686462Y-160560371D01*
X278686462Y-160400371D02*
X278777891Y-160491800D01*
X278549320Y-160560371D02*
X278572177Y-160548942D01*
X278583605Y-160537514D01*
X278595034Y-160514657D01*
X278595034Y-160446085D01*
X278583605Y-160423228D01*
X278572177Y-160411800D01*
X278549320Y-160400371D01*
X278515034Y-160400371D01*
X278492177Y-160411800D01*
X278480748Y-160423228D01*
X278469320Y-160446085D01*
X278469320Y-160514657D01*
X278480748Y-160537514D01*
X278492177Y-160548942D01*
X278515034Y-160560371D01*
X278549320Y-160560371D01*
X278263605Y-160400371D02*
X278263605Y-160560371D01*
X278366462Y-160400371D02*
X278366462Y-160526085D01*
X278355034Y-160548942D01*
X278332177Y-160560371D01*
X278297891Y-160560371D01*
X278275034Y-160548942D01*
X278263605Y-160537514D01*
X278183605Y-160400371D02*
X278092177Y-160400371D01*
X278149320Y-160320371D02*
X278149320Y-160526085D01*
X278137891Y-160548942D01*
X278115034Y-160560371D01*
X278092177Y-160560371D01*
X277749320Y-160434657D02*
X277715034Y-160446085D01*
X277703605Y-160457514D01*
X277692177Y-160480371D01*
X277692177Y-160514657D01*
X277703605Y-160537514D01*
X277715034Y-160548942D01*
X277737891Y-160560371D01*
X277829320Y-160560371D01*
X277829320Y-160320371D01*
X277749320Y-160320371D01*
X277726462Y-160331800D01*
X277715034Y-160343228D01*
X277703605Y-160366085D01*
X277703605Y-160388942D01*
X277715034Y-160411800D01*
X277726462Y-160423228D01*
X277749320Y-160434657D01*
X277829320Y-160434657D01*
X277555034Y-160560371D02*
X277577891Y-160548942D01*
X277589320Y-160537514D01*
X277600748Y-160514657D01*
X277600748Y-160446085D01*
X277589320Y-160423228D01*
X277577891Y-160411800D01*
X277555034Y-160400371D01*
X277520748Y-160400371D01*
X277497891Y-160411800D01*
X277486462Y-160423228D01*
X277475034Y-160446085D01*
X277475034Y-160514657D01*
X277486462Y-160537514D01*
X277497891Y-160548942D01*
X277520748Y-160560371D01*
X277555034Y-160560371D01*
X277269320Y-160560371D02*
X277269320Y-160434657D01*
X277280748Y-160411800D01*
X277303605Y-160400371D01*
X277349320Y-160400371D01*
X277372177Y-160411800D01*
X277269320Y-160548942D02*
X277292177Y-160560371D01*
X277349320Y-160560371D01*
X277372177Y-160548942D01*
X277383605Y-160526085D01*
X277383605Y-160503228D01*
X277372177Y-160480371D01*
X277349320Y-160468942D01*
X277292177Y-160468942D01*
X277269320Y-160457514D01*
X277155034Y-160560371D02*
X277155034Y-160400371D01*
X277155034Y-160446085D02*
X277143605Y-160423228D01*
X277132177Y-160411800D01*
X277109320Y-160400371D01*
X277086462Y-160400371D01*
X276903605Y-160560371D02*
X276903605Y-160320371D01*
X276903605Y-160548942D02*
X276926462Y-160560371D01*
X276972177Y-160560371D01*
X276995034Y-160548942D01*
X277006462Y-160537514D01*
X277017891Y-160514657D01*
X277017891Y-160446085D01*
X277006462Y-160423228D01*
X276995034Y-160411800D01*
X276972177Y-160400371D01*
X276926462Y-160400371D01*
X276903605Y-160411800D01*
D11*
X282726898Y-164235199D02*
X282209742Y-164235199D01*
X282726898Y-162815199D02*
X282209742Y-162815199D01*
X277891742Y-162815199D02*
X278408898Y-162815199D01*
X277891742Y-164235199D02*
X278408898Y-164235199D01*
D12*
X282568320Y-162526628D02*
X282768320Y-162240914D01*
X282911177Y-162526628D02*
X282911177Y-161926628D01*
X282682605Y-161926628D01*
X282625462Y-161955200D01*
X282596891Y-161983771D01*
X282568320Y-162040914D01*
X282568320Y-162126628D01*
X282596891Y-162183771D01*
X282625462Y-162212342D01*
X282682605Y-162240914D01*
X282911177Y-162240914D01*
X281996891Y-162526628D02*
X282339748Y-162526628D01*
X282168320Y-162526628D02*
X282168320Y-161926628D01*
X282225462Y-162012342D01*
X282282605Y-162069485D01*
X282339748Y-162098057D01*
X278250320Y-162526628D02*
X278450320Y-162240914D01*
X278593177Y-162526628D02*
X278593177Y-161926628D01*
X278364605Y-161926628D01*
X278307462Y-161955200D01*
X278278891Y-161983771D01*
X278250320Y-162040914D01*
X278250320Y-162126628D01*
X278278891Y-162183771D01*
X278307462Y-162212342D01*
X278364605Y-162240914D01*
X278593177Y-162240914D01*
X277878891Y-161926628D02*
X277821748Y-161926628D01*
X277764605Y-161955200D01*
X277736034Y-161983771D01*
X277707462Y-162040914D01*
X277678891Y-162155200D01*
X277678891Y-162298057D01*
X277707462Y-162412342D01*
X277736034Y-162469485D01*
X277764605Y-162498057D01*
X277821748Y-162526628D01*
X277878891Y-162526628D01*
X277936034Y-162498057D01*
X277964605Y-162469485D01*
X277993177Y-162412342D01*
X278021748Y-162298057D01*
X278021748Y-162155200D01*
X277993177Y-162040914D01*
X277964605Y-161983771D01*
X277936034Y-161955200D01*
X277878891Y-161926628D01*
M02*
