G04 #@! TF.GenerationSoftware,KiCad,Pcbnew,(5.1.4)-1*
G04 #@! TF.CreationDate,2021-09-02T19:08:13+02:00*
G04 #@! TF.ProjectId,mini-type-c-breakout,6d696e69-2d74-4797-9065-2d632d627265,rev?*
G04 #@! TF.SameCoordinates,Original*
G04 #@! TF.FileFunction,Copper,L2,Bot*
G04 #@! TF.FilePolarity,Positive*
%FSLAX46Y46*%
G04 Gerber Fmt 4.6, Leading zero omitted, Abs format (unit mm)*
G04 Created by KiCad (PCBNEW (5.1.4)-1) date 2021-09-02 19:08:13*
%MOMM*%
%LPD*%
G04 APERTURE LIST*
%ADD10C,0.100000*%
%ADD11C,0.975000*%
%ADD12C,0.800000*%
%ADD13C,0.381000*%
%ADD14C,0.254000*%
%ADD15C,0.127000*%
G04 APERTURE END LIST*
D10*
G36*
X281798462Y-162826373D02*
G01*
X281822123Y-162829883D01*
X281845327Y-162835695D01*
X281867849Y-162843753D01*
X281889473Y-162853981D01*
X281909990Y-162866278D01*
X281929203Y-162880528D01*
X281946927Y-162896592D01*
X281962991Y-162914316D01*
X281977241Y-162933529D01*
X281989538Y-162954046D01*
X281999766Y-162975670D01*
X282007824Y-162998192D01*
X282013636Y-163021396D01*
X282017146Y-163045057D01*
X282018320Y-163068949D01*
X282018320Y-163981449D01*
X282017146Y-164005341D01*
X282013636Y-164029002D01*
X282007824Y-164052206D01*
X281999766Y-164074728D01*
X281989538Y-164096352D01*
X281977241Y-164116869D01*
X281962991Y-164136082D01*
X281946927Y-164153806D01*
X281929203Y-164169870D01*
X281909990Y-164184120D01*
X281889473Y-164196417D01*
X281867849Y-164206645D01*
X281845327Y-164214703D01*
X281822123Y-164220515D01*
X281798462Y-164224025D01*
X281774570Y-164225199D01*
X281287070Y-164225199D01*
X281263178Y-164224025D01*
X281239517Y-164220515D01*
X281216313Y-164214703D01*
X281193791Y-164206645D01*
X281172167Y-164196417D01*
X281151650Y-164184120D01*
X281132437Y-164169870D01*
X281114713Y-164153806D01*
X281098649Y-164136082D01*
X281084399Y-164116869D01*
X281072102Y-164096352D01*
X281061874Y-164074728D01*
X281053816Y-164052206D01*
X281048004Y-164029002D01*
X281044494Y-164005341D01*
X281043320Y-163981449D01*
X281043320Y-163068949D01*
X281044494Y-163045057D01*
X281048004Y-163021396D01*
X281053816Y-162998192D01*
X281061874Y-162975670D01*
X281072102Y-162954046D01*
X281084399Y-162933529D01*
X281098649Y-162914316D01*
X281114713Y-162896592D01*
X281132437Y-162880528D01*
X281151650Y-162866278D01*
X281172167Y-162853981D01*
X281193791Y-162843753D01*
X281216313Y-162835695D01*
X281239517Y-162829883D01*
X281263178Y-162826373D01*
X281287070Y-162825199D01*
X281774570Y-162825199D01*
X281798462Y-162826373D01*
X281798462Y-162826373D01*
G37*
D11*
X281530820Y-163525199D03*
D10*
G36*
X283673462Y-162826373D02*
G01*
X283697123Y-162829883D01*
X283720327Y-162835695D01*
X283742849Y-162843753D01*
X283764473Y-162853981D01*
X283784990Y-162866278D01*
X283804203Y-162880528D01*
X283821927Y-162896592D01*
X283837991Y-162914316D01*
X283852241Y-162933529D01*
X283864538Y-162954046D01*
X283874766Y-162975670D01*
X283882824Y-162998192D01*
X283888636Y-163021396D01*
X283892146Y-163045057D01*
X283893320Y-163068949D01*
X283893320Y-163981449D01*
X283892146Y-164005341D01*
X283888636Y-164029002D01*
X283882824Y-164052206D01*
X283874766Y-164074728D01*
X283864538Y-164096352D01*
X283852241Y-164116869D01*
X283837991Y-164136082D01*
X283821927Y-164153806D01*
X283804203Y-164169870D01*
X283784990Y-164184120D01*
X283764473Y-164196417D01*
X283742849Y-164206645D01*
X283720327Y-164214703D01*
X283697123Y-164220515D01*
X283673462Y-164224025D01*
X283649570Y-164225199D01*
X283162070Y-164225199D01*
X283138178Y-164224025D01*
X283114517Y-164220515D01*
X283091313Y-164214703D01*
X283068791Y-164206645D01*
X283047167Y-164196417D01*
X283026650Y-164184120D01*
X283007437Y-164169870D01*
X282989713Y-164153806D01*
X282973649Y-164136082D01*
X282959399Y-164116869D01*
X282947102Y-164096352D01*
X282936874Y-164074728D01*
X282928816Y-164052206D01*
X282923004Y-164029002D01*
X282919494Y-164005341D01*
X282918320Y-163981449D01*
X282918320Y-163068949D01*
X282919494Y-163045057D01*
X282923004Y-163021396D01*
X282928816Y-162998192D01*
X282936874Y-162975670D01*
X282947102Y-162954046D01*
X282959399Y-162933529D01*
X282973649Y-162914316D01*
X282989713Y-162896592D01*
X283007437Y-162880528D01*
X283026650Y-162866278D01*
X283047167Y-162853981D01*
X283068791Y-162843753D01*
X283091313Y-162835695D01*
X283114517Y-162829883D01*
X283138178Y-162826373D01*
X283162070Y-162825199D01*
X283649570Y-162825199D01*
X283673462Y-162826373D01*
X283673462Y-162826373D01*
G37*
D11*
X283405820Y-163525199D03*
D10*
G36*
X279355462Y-162826373D02*
G01*
X279379123Y-162829883D01*
X279402327Y-162835695D01*
X279424849Y-162843753D01*
X279446473Y-162853981D01*
X279466990Y-162866278D01*
X279486203Y-162880528D01*
X279503927Y-162896592D01*
X279519991Y-162914316D01*
X279534241Y-162933529D01*
X279546538Y-162954046D01*
X279556766Y-162975670D01*
X279564824Y-162998192D01*
X279570636Y-163021396D01*
X279574146Y-163045057D01*
X279575320Y-163068949D01*
X279575320Y-163981449D01*
X279574146Y-164005341D01*
X279570636Y-164029002D01*
X279564824Y-164052206D01*
X279556766Y-164074728D01*
X279546538Y-164096352D01*
X279534241Y-164116869D01*
X279519991Y-164136082D01*
X279503927Y-164153806D01*
X279486203Y-164169870D01*
X279466990Y-164184120D01*
X279446473Y-164196417D01*
X279424849Y-164206645D01*
X279402327Y-164214703D01*
X279379123Y-164220515D01*
X279355462Y-164224025D01*
X279331570Y-164225199D01*
X278844070Y-164225199D01*
X278820178Y-164224025D01*
X278796517Y-164220515D01*
X278773313Y-164214703D01*
X278750791Y-164206645D01*
X278729167Y-164196417D01*
X278708650Y-164184120D01*
X278689437Y-164169870D01*
X278671713Y-164153806D01*
X278655649Y-164136082D01*
X278641399Y-164116869D01*
X278629102Y-164096352D01*
X278618874Y-164074728D01*
X278610816Y-164052206D01*
X278605004Y-164029002D01*
X278601494Y-164005341D01*
X278600320Y-163981449D01*
X278600320Y-163068949D01*
X278601494Y-163045057D01*
X278605004Y-163021396D01*
X278610816Y-162998192D01*
X278618874Y-162975670D01*
X278629102Y-162954046D01*
X278641399Y-162933529D01*
X278655649Y-162914316D01*
X278671713Y-162896592D01*
X278689437Y-162880528D01*
X278708650Y-162866278D01*
X278729167Y-162853981D01*
X278750791Y-162843753D01*
X278773313Y-162835695D01*
X278796517Y-162829883D01*
X278820178Y-162826373D01*
X278844070Y-162825199D01*
X279331570Y-162825199D01*
X279355462Y-162826373D01*
X279355462Y-162826373D01*
G37*
D11*
X279087820Y-163525199D03*
D10*
G36*
X277480462Y-162826373D02*
G01*
X277504123Y-162829883D01*
X277527327Y-162835695D01*
X277549849Y-162843753D01*
X277571473Y-162853981D01*
X277591990Y-162866278D01*
X277611203Y-162880528D01*
X277628927Y-162896592D01*
X277644991Y-162914316D01*
X277659241Y-162933529D01*
X277671538Y-162954046D01*
X277681766Y-162975670D01*
X277689824Y-162998192D01*
X277695636Y-163021396D01*
X277699146Y-163045057D01*
X277700320Y-163068949D01*
X277700320Y-163981449D01*
X277699146Y-164005341D01*
X277695636Y-164029002D01*
X277689824Y-164052206D01*
X277681766Y-164074728D01*
X277671538Y-164096352D01*
X277659241Y-164116869D01*
X277644991Y-164136082D01*
X277628927Y-164153806D01*
X277611203Y-164169870D01*
X277591990Y-164184120D01*
X277571473Y-164196417D01*
X277549849Y-164206645D01*
X277527327Y-164214703D01*
X277504123Y-164220515D01*
X277480462Y-164224025D01*
X277456570Y-164225199D01*
X276969070Y-164225199D01*
X276945178Y-164224025D01*
X276921517Y-164220515D01*
X276898313Y-164214703D01*
X276875791Y-164206645D01*
X276854167Y-164196417D01*
X276833650Y-164184120D01*
X276814437Y-164169870D01*
X276796713Y-164153806D01*
X276780649Y-164136082D01*
X276766399Y-164116869D01*
X276754102Y-164096352D01*
X276743874Y-164074728D01*
X276735816Y-164052206D01*
X276730004Y-164029002D01*
X276726494Y-164005341D01*
X276725320Y-163981449D01*
X276725320Y-163068949D01*
X276726494Y-163045057D01*
X276730004Y-163021396D01*
X276735816Y-162998192D01*
X276743874Y-162975670D01*
X276754102Y-162954046D01*
X276766399Y-162933529D01*
X276780649Y-162914316D01*
X276796713Y-162896592D01*
X276814437Y-162880528D01*
X276833650Y-162866278D01*
X276854167Y-162853981D01*
X276875791Y-162843753D01*
X276898313Y-162835695D01*
X276921517Y-162829883D01*
X276945178Y-162826373D01*
X276969070Y-162825199D01*
X277456570Y-162825199D01*
X277480462Y-162826373D01*
X277480462Y-162826373D01*
G37*
D11*
X277212820Y-163525199D03*
D12*
X283494319Y-162229800D03*
X277251160Y-163614100D03*
X277886821Y-161366802D03*
X282776320Y-161487885D03*
X281276320Y-161721800D03*
X279743887Y-162299367D03*
X282102742Y-163525199D03*
X278364236Y-163529689D03*
D13*
X283405820Y-162318299D02*
X283494319Y-162229800D01*
X283405820Y-163525199D02*
X283405820Y-162318299D01*
X282776320Y-160759800D02*
X282776320Y-161487885D01*
X278236138Y-160451800D02*
X282468320Y-160451800D01*
X277886821Y-161366802D02*
X277886821Y-160801117D01*
X282468320Y-160451800D02*
X282776320Y-160759800D01*
X277886821Y-160801117D02*
X278236138Y-160451800D01*
D14*
X280321454Y-161721800D02*
X279743887Y-162299367D01*
X281276320Y-161721800D02*
X280321454Y-161721800D01*
X282102742Y-163525199D02*
X281530820Y-163525199D01*
X279087820Y-163525199D02*
X278368726Y-163525199D01*
X278368726Y-163525199D02*
X278364236Y-163529689D01*
D15*
G36*
X283721573Y-159905300D02*
G01*
X283745477Y-159907644D01*
X283752368Y-159909724D01*
X283758718Y-159913100D01*
X283764294Y-159917648D01*
X283768874Y-159923185D01*
X283772298Y-159929517D01*
X283774426Y-159936390D01*
X283776821Y-159959180D01*
X283776820Y-162506682D01*
X283548695Y-162507699D01*
X283469320Y-162587074D01*
X283469320Y-163461699D01*
X283489320Y-163461699D01*
X283489320Y-163588699D01*
X283469320Y-163588699D01*
X283469320Y-163608699D01*
X283342320Y-163608699D01*
X283342320Y-163588699D01*
X283322320Y-163588699D01*
X283322320Y-163461699D01*
X283342320Y-163461699D01*
X283342320Y-162587074D01*
X283262945Y-162507699D01*
X282918320Y-162506163D01*
X282856079Y-162512293D01*
X282796230Y-162530448D01*
X282741073Y-162559930D01*
X282692727Y-162599606D01*
X282653051Y-162647952D01*
X282623569Y-162703109D01*
X282605414Y-162762958D01*
X282599284Y-162825199D01*
X282599787Y-163007545D01*
X282560122Y-162967880D01*
X282442606Y-162889358D01*
X282312029Y-162835272D01*
X282281482Y-162829196D01*
X282242509Y-162756282D01*
X282172520Y-162670999D01*
X282087237Y-162601010D01*
X281989939Y-162549003D01*
X281884364Y-162516977D01*
X281774570Y-162506163D01*
X281287070Y-162506163D01*
X281177276Y-162516977D01*
X281071701Y-162549003D01*
X280974403Y-162601010D01*
X280889120Y-162670999D01*
X280819131Y-162756282D01*
X280767124Y-162853580D01*
X280735098Y-162959155D01*
X280724284Y-163068949D01*
X280724284Y-163981449D01*
X280730671Y-164046301D01*
X279887968Y-164046301D01*
X279894356Y-163981449D01*
X279894356Y-163068949D01*
X279887791Y-163002299D01*
X279953174Y-162989294D01*
X280083751Y-162935208D01*
X280201267Y-162856686D01*
X280301206Y-162756747D01*
X280379728Y-162639231D01*
X280433814Y-162508654D01*
X280461387Y-162370035D01*
X280461387Y-162228699D01*
X280458365Y-162213507D01*
X280505572Y-162166300D01*
X280710395Y-162166300D01*
X280719001Y-162179180D01*
X280818940Y-162279119D01*
X280936456Y-162357641D01*
X281067033Y-162411727D01*
X281205652Y-162439300D01*
X281346988Y-162439300D01*
X281485607Y-162411727D01*
X281616184Y-162357641D01*
X281733700Y-162279119D01*
X281833639Y-162179180D01*
X281912161Y-162061664D01*
X281966247Y-161931087D01*
X281993820Y-161792468D01*
X281993820Y-161651132D01*
X281966247Y-161512513D01*
X281912161Y-161381936D01*
X281833639Y-161264420D01*
X281733700Y-161164481D01*
X281616184Y-161085959D01*
X281485607Y-161031873D01*
X281346988Y-161004300D01*
X281205652Y-161004300D01*
X281067033Y-161031873D01*
X280936456Y-161085959D01*
X280818940Y-161164481D01*
X280719001Y-161264420D01*
X280710395Y-161277300D01*
X280343273Y-161277300D01*
X280321453Y-161275151D01*
X280299633Y-161277300D01*
X280299624Y-161277300D01*
X280234317Y-161283732D01*
X280150528Y-161309149D01*
X280073309Y-161350424D01*
X280073307Y-161350425D01*
X280073308Y-161350425D01*
X280022581Y-161392055D01*
X280022578Y-161392058D01*
X280005625Y-161405971D01*
X279991712Y-161422924D01*
X279829747Y-161584889D01*
X279814555Y-161581867D01*
X279673219Y-161581867D01*
X279534600Y-161609440D01*
X279404023Y-161663526D01*
X279286507Y-161742048D01*
X279186568Y-161841987D01*
X279108046Y-161959503D01*
X279053960Y-162090080D01*
X279026387Y-162228699D01*
X279026387Y-162370035D01*
X279053465Y-162506163D01*
X278844070Y-162506163D01*
X278734276Y-162516977D01*
X278628701Y-162549003D01*
X278531403Y-162601010D01*
X278446120Y-162670999D01*
X278376131Y-162756282D01*
X278346248Y-162812189D01*
X278293568Y-162812189D01*
X278154949Y-162839762D01*
X278024372Y-162893848D01*
X278019157Y-162897332D01*
X278019356Y-162825199D01*
X278013226Y-162762958D01*
X277995071Y-162703109D01*
X277965589Y-162647952D01*
X277925913Y-162599606D01*
X277877567Y-162559930D01*
X277822410Y-162530448D01*
X277762561Y-162512293D01*
X277700320Y-162506163D01*
X277355695Y-162507699D01*
X277276320Y-162587074D01*
X277276320Y-163461699D01*
X277296320Y-163461699D01*
X277296320Y-163588699D01*
X277276320Y-163588699D01*
X277276320Y-163608699D01*
X277149320Y-163608699D01*
X277149320Y-163588699D01*
X277129320Y-163588699D01*
X277129320Y-163461699D01*
X277149320Y-163461699D01*
X277149320Y-162587074D01*
X277069945Y-162507699D01*
X276841819Y-162506682D01*
X276841819Y-161296134D01*
X277169321Y-161296134D01*
X277169321Y-161437470D01*
X277196894Y-161576089D01*
X277250980Y-161706666D01*
X277329502Y-161824182D01*
X277429441Y-161924121D01*
X277546957Y-162002643D01*
X277677534Y-162056729D01*
X277816153Y-162084302D01*
X277957489Y-162084302D01*
X278096108Y-162056729D01*
X278226685Y-162002643D01*
X278344201Y-161924121D01*
X278444140Y-161824182D01*
X278522662Y-161706666D01*
X278576748Y-161576089D01*
X278604321Y-161437470D01*
X278604321Y-161296134D01*
X278576748Y-161157515D01*
X278522662Y-161026938D01*
X278477802Y-160959800D01*
X282257900Y-160959800D01*
X282268320Y-160970220D01*
X282268320Y-160981186D01*
X282219001Y-161030505D01*
X282140479Y-161148021D01*
X282086393Y-161278598D01*
X282058820Y-161417217D01*
X282058820Y-161558553D01*
X282086393Y-161697172D01*
X282140479Y-161827749D01*
X282219001Y-161945265D01*
X282318940Y-162045204D01*
X282436456Y-162123726D01*
X282567033Y-162177812D01*
X282705652Y-162205385D01*
X282846988Y-162205385D01*
X282985607Y-162177812D01*
X283116184Y-162123726D01*
X283233700Y-162045204D01*
X283333639Y-161945265D01*
X283412161Y-161827749D01*
X283466247Y-161697172D01*
X283493820Y-161558553D01*
X283493820Y-161417217D01*
X283466247Y-161278598D01*
X283412161Y-161148021D01*
X283333639Y-161030505D01*
X283284320Y-160981186D01*
X283284320Y-160784744D01*
X283286777Y-160759800D01*
X283284320Y-160734853D01*
X283276969Y-160660215D01*
X283247921Y-160564457D01*
X283200749Y-160476205D01*
X283137268Y-160398852D01*
X283117880Y-160382941D01*
X282845175Y-160110235D01*
X282829268Y-160090852D01*
X282751915Y-160027371D01*
X282663663Y-159980199D01*
X282567905Y-159951151D01*
X282493267Y-159943800D01*
X282493264Y-159943800D01*
X282468320Y-159941343D01*
X282443376Y-159943800D01*
X278261082Y-159943800D01*
X278236138Y-159941343D01*
X278211194Y-159943800D01*
X278211191Y-159943800D01*
X278136553Y-159951151D01*
X278040795Y-159980199D01*
X277952543Y-160027371D01*
X277875190Y-160090852D01*
X277859283Y-160110235D01*
X277545251Y-160424267D01*
X277525874Y-160440169D01*
X277509972Y-160459546D01*
X277509971Y-160459547D01*
X277462392Y-160517522D01*
X277437305Y-160564458D01*
X277415221Y-160605774D01*
X277398707Y-160660215D01*
X277386173Y-160701533D01*
X277376364Y-160801117D01*
X277378822Y-160826071D01*
X277378822Y-160860102D01*
X277329502Y-160909422D01*
X277250980Y-161026938D01*
X277196894Y-161157515D01*
X277169321Y-161296134D01*
X276841819Y-161296134D01*
X276841821Y-159960547D01*
X276844165Y-159936643D01*
X276846245Y-159929754D01*
X276849621Y-159923405D01*
X276854168Y-159917829D01*
X276859709Y-159913245D01*
X276866041Y-159909822D01*
X276872908Y-159907696D01*
X276895721Y-159905298D01*
X283721573Y-159905300D01*
X283721573Y-159905300D01*
G37*
X283721573Y-159905300D02*
X283745477Y-159907644D01*
X283752368Y-159909724D01*
X283758718Y-159913100D01*
X283764294Y-159917648D01*
X283768874Y-159923185D01*
X283772298Y-159929517D01*
X283774426Y-159936390D01*
X283776821Y-159959180D01*
X283776820Y-162506682D01*
X283548695Y-162507699D01*
X283469320Y-162587074D01*
X283469320Y-163461699D01*
X283489320Y-163461699D01*
X283489320Y-163588699D01*
X283469320Y-163588699D01*
X283469320Y-163608699D01*
X283342320Y-163608699D01*
X283342320Y-163588699D01*
X283322320Y-163588699D01*
X283322320Y-163461699D01*
X283342320Y-163461699D01*
X283342320Y-162587074D01*
X283262945Y-162507699D01*
X282918320Y-162506163D01*
X282856079Y-162512293D01*
X282796230Y-162530448D01*
X282741073Y-162559930D01*
X282692727Y-162599606D01*
X282653051Y-162647952D01*
X282623569Y-162703109D01*
X282605414Y-162762958D01*
X282599284Y-162825199D01*
X282599787Y-163007545D01*
X282560122Y-162967880D01*
X282442606Y-162889358D01*
X282312029Y-162835272D01*
X282281482Y-162829196D01*
X282242509Y-162756282D01*
X282172520Y-162670999D01*
X282087237Y-162601010D01*
X281989939Y-162549003D01*
X281884364Y-162516977D01*
X281774570Y-162506163D01*
X281287070Y-162506163D01*
X281177276Y-162516977D01*
X281071701Y-162549003D01*
X280974403Y-162601010D01*
X280889120Y-162670999D01*
X280819131Y-162756282D01*
X280767124Y-162853580D01*
X280735098Y-162959155D01*
X280724284Y-163068949D01*
X280724284Y-163981449D01*
X280730671Y-164046301D01*
X279887968Y-164046301D01*
X279894356Y-163981449D01*
X279894356Y-163068949D01*
X279887791Y-163002299D01*
X279953174Y-162989294D01*
X280083751Y-162935208D01*
X280201267Y-162856686D01*
X280301206Y-162756747D01*
X280379728Y-162639231D01*
X280433814Y-162508654D01*
X280461387Y-162370035D01*
X280461387Y-162228699D01*
X280458365Y-162213507D01*
X280505572Y-162166300D01*
X280710395Y-162166300D01*
X280719001Y-162179180D01*
X280818940Y-162279119D01*
X280936456Y-162357641D01*
X281067033Y-162411727D01*
X281205652Y-162439300D01*
X281346988Y-162439300D01*
X281485607Y-162411727D01*
X281616184Y-162357641D01*
X281733700Y-162279119D01*
X281833639Y-162179180D01*
X281912161Y-162061664D01*
X281966247Y-161931087D01*
X281993820Y-161792468D01*
X281993820Y-161651132D01*
X281966247Y-161512513D01*
X281912161Y-161381936D01*
X281833639Y-161264420D01*
X281733700Y-161164481D01*
X281616184Y-161085959D01*
X281485607Y-161031873D01*
X281346988Y-161004300D01*
X281205652Y-161004300D01*
X281067033Y-161031873D01*
X280936456Y-161085959D01*
X280818940Y-161164481D01*
X280719001Y-161264420D01*
X280710395Y-161277300D01*
X280343273Y-161277300D01*
X280321453Y-161275151D01*
X280299633Y-161277300D01*
X280299624Y-161277300D01*
X280234317Y-161283732D01*
X280150528Y-161309149D01*
X280073309Y-161350424D01*
X280073307Y-161350425D01*
X280073308Y-161350425D01*
X280022581Y-161392055D01*
X280022578Y-161392058D01*
X280005625Y-161405971D01*
X279991712Y-161422924D01*
X279829747Y-161584889D01*
X279814555Y-161581867D01*
X279673219Y-161581867D01*
X279534600Y-161609440D01*
X279404023Y-161663526D01*
X279286507Y-161742048D01*
X279186568Y-161841987D01*
X279108046Y-161959503D01*
X279053960Y-162090080D01*
X279026387Y-162228699D01*
X279026387Y-162370035D01*
X279053465Y-162506163D01*
X278844070Y-162506163D01*
X278734276Y-162516977D01*
X278628701Y-162549003D01*
X278531403Y-162601010D01*
X278446120Y-162670999D01*
X278376131Y-162756282D01*
X278346248Y-162812189D01*
X278293568Y-162812189D01*
X278154949Y-162839762D01*
X278024372Y-162893848D01*
X278019157Y-162897332D01*
X278019356Y-162825199D01*
X278013226Y-162762958D01*
X277995071Y-162703109D01*
X277965589Y-162647952D01*
X277925913Y-162599606D01*
X277877567Y-162559930D01*
X277822410Y-162530448D01*
X277762561Y-162512293D01*
X277700320Y-162506163D01*
X277355695Y-162507699D01*
X277276320Y-162587074D01*
X277276320Y-163461699D01*
X277296320Y-163461699D01*
X277296320Y-163588699D01*
X277276320Y-163588699D01*
X277276320Y-163608699D01*
X277149320Y-163608699D01*
X277149320Y-163588699D01*
X277129320Y-163588699D01*
X277129320Y-163461699D01*
X277149320Y-163461699D01*
X277149320Y-162587074D01*
X277069945Y-162507699D01*
X276841819Y-162506682D01*
X276841819Y-161296134D01*
X277169321Y-161296134D01*
X277169321Y-161437470D01*
X277196894Y-161576089D01*
X277250980Y-161706666D01*
X277329502Y-161824182D01*
X277429441Y-161924121D01*
X277546957Y-162002643D01*
X277677534Y-162056729D01*
X277816153Y-162084302D01*
X277957489Y-162084302D01*
X278096108Y-162056729D01*
X278226685Y-162002643D01*
X278344201Y-161924121D01*
X278444140Y-161824182D01*
X278522662Y-161706666D01*
X278576748Y-161576089D01*
X278604321Y-161437470D01*
X278604321Y-161296134D01*
X278576748Y-161157515D01*
X278522662Y-161026938D01*
X278477802Y-160959800D01*
X282257900Y-160959800D01*
X282268320Y-160970220D01*
X282268320Y-160981186D01*
X282219001Y-161030505D01*
X282140479Y-161148021D01*
X282086393Y-161278598D01*
X282058820Y-161417217D01*
X282058820Y-161558553D01*
X282086393Y-161697172D01*
X282140479Y-161827749D01*
X282219001Y-161945265D01*
X282318940Y-162045204D01*
X282436456Y-162123726D01*
X282567033Y-162177812D01*
X282705652Y-162205385D01*
X282846988Y-162205385D01*
X282985607Y-162177812D01*
X283116184Y-162123726D01*
X283233700Y-162045204D01*
X283333639Y-161945265D01*
X283412161Y-161827749D01*
X283466247Y-161697172D01*
X283493820Y-161558553D01*
X283493820Y-161417217D01*
X283466247Y-161278598D01*
X283412161Y-161148021D01*
X283333639Y-161030505D01*
X283284320Y-160981186D01*
X283284320Y-160784744D01*
X283286777Y-160759800D01*
X283284320Y-160734853D01*
X283276969Y-160660215D01*
X283247921Y-160564457D01*
X283200749Y-160476205D01*
X283137268Y-160398852D01*
X283117880Y-160382941D01*
X282845175Y-160110235D01*
X282829268Y-160090852D01*
X282751915Y-160027371D01*
X282663663Y-159980199D01*
X282567905Y-159951151D01*
X282493267Y-159943800D01*
X282493264Y-159943800D01*
X282468320Y-159941343D01*
X282443376Y-159943800D01*
X278261082Y-159943800D01*
X278236138Y-159941343D01*
X278211194Y-159943800D01*
X278211191Y-159943800D01*
X278136553Y-159951151D01*
X278040795Y-159980199D01*
X277952543Y-160027371D01*
X277875190Y-160090852D01*
X277859283Y-160110235D01*
X277545251Y-160424267D01*
X277525874Y-160440169D01*
X277509972Y-160459546D01*
X277509971Y-160459547D01*
X277462392Y-160517522D01*
X277437305Y-160564458D01*
X277415221Y-160605774D01*
X277398707Y-160660215D01*
X277386173Y-160701533D01*
X277376364Y-160801117D01*
X277378822Y-160826071D01*
X277378822Y-160860102D01*
X277329502Y-160909422D01*
X277250980Y-161026938D01*
X277196894Y-161157515D01*
X277169321Y-161296134D01*
X276841819Y-161296134D01*
X276841821Y-159960547D01*
X276844165Y-159936643D01*
X276846245Y-159929754D01*
X276849621Y-159923405D01*
X276854168Y-159917829D01*
X276859709Y-159913245D01*
X276866041Y-159909822D01*
X276872908Y-159907696D01*
X276895721Y-159905298D01*
X283721573Y-159905300D01*
M02*
